<mxfile host="app.diagrams.net" modified="2024-02-25T09:26:54.206Z" agent="Mozilla/5.0 (Macintosh; Intel Mac OS X 10_15_7) AppleWebKit/537.36 (KHTML, like Gecko) Chrome/121.0.0.0 Safari/537.36" version="22.0.0" etag="ScfgN7FNtm7mbLaXt--k" type="github">
  <diagram name="Page-1" id="TDtCqJsHMkLvHDWKBZi_">
    <mxGraphModel>
      <root>
        <mxCell id="0" />
        <mxCell id="1" parent="0" />
      </root>
    </mxGraphModel>
  </diagram>
</mxfile>
